<svg xmlns="http://www.w3.org/2000/svg" xmlns:xlink="http://www.w3.org/1999/xlink" width="91" zoomAndPan="magnify" viewBox="0 0 68.25 38.249999" height="51" preserveAspectRatio="xMidYMid meet" version="1.0"><path fill="#000000" d="M 16.894531 1.09375 C 14.8125 1.441406 12.402344 2.261719 10.714844 3.230469 C 9.273438 4.050781 8.332031 4.769531 6.992188 6.109375 C 4.953125 8.121094 3.566406 10.453125 2.597656 13.433594 C 1.851562 15.691406 1.753906 16.4375 1.753906 19.292969 C 1.753906 22 1.875 22.816406 2.570312 24.976562 C 4.53125 31.109375 9.546875 35.40625 15.976562 36.398438 C 20.296875 37.066406 24.742188 36.445312 28.367188 34.636719 C 31.21875 33.21875 33.378906 31.308594 35.117188 28.726562 C 36.085938 27.285156 38.023438 23.164062 43.113281 11.722656 C 43.632812 10.503906 44.128906 9.535156 44.179688 9.609375 C 44.230469 9.660156 44.652344 10.652344 45.121094 11.820312 C 47.730469 18.175781 49.21875 21.824219 51.054688 26.394531 C 52.171875 29.171875 53.539062 32.597656 54.109375 34.015625 L 55.128906 36.546875 L 60.664062 36.546875 C 65.878906 36.597656 66.199219 36.597656 66.148438 36.398438 C 66.125 36.273438 64.660156 32.625 62.921875 28.253906 C 58.355469 16.808594 55.203125 8.839844 53.6875 4.992188 C 52.96875 3.132812 52.296875 1.492188 52.246094 1.320312 L 52.125 1.046875 L 48.945312 1.046875 C 48.945312 1.046875 45.769531 1.09375 45.769531 1.09375 L 43.808594 5.515625 C 42.714844 7.945312 40.605469 12.640625 39.140625 15.964844 C 34.496094 26.394531 33.976562 27.386719 32.261719 29.371094 C 30.871094 30.984375 28.414062 32.523438 26.304688 33.09375 C 24.941406 33.46875 22.132812 33.46875 20.769531 33.09375 C 15.605469 31.679688 12.550781 26.195312 12.550781 18.25 C 12.550781 13.953125 13.171875 10.726562 14.511719 8.070312 C 15.804688 5.539062 17.566406 4 20.023438 3.230469 C 21.117188 2.882812 23.722656 2.933594 24.839844 3.28125 C 26.105469 3.675781 26.132812 3.726562 25.1875 3.949219 C 23.351562 4.421875 21.886719 5.5625 21.066406 7.175781 C 19.378906 10.554688 20.742188 14.847656 24.019531 16.4375 C 26.800781 17.777344 29.980469 17.207031 32.039062 14.972656 C 34.796875 11.992188 34.199219 7.175781 30.75 4.371094 C 28.8125 2.785156 26.949219 1.9375 23.996094 1.246094 C 22.582031 0.921875 18.484375 0.796875 16.921875 1.070312 Z M 16.894531 1.09375 " fill-opacity="1" fill-rule="nonzero"/><path fill="#000000" d="M 41.574219 23.8125 C 40.007812 24.28125 38.964844 25.050781 38.074219 26.394531 C 37.253906 27.609375 36.929688 28.703125 36.929688 30.167969 C 36.929688 32.078125 37.625 33.617188 39.066406 34.933594 C 42.640625 38.234375 48.597656 36.644531 50.039062 31.980469 C 50.335938 31.011719 50.359375 29.273438 50.089844 28.328125 C 49.441406 26.09375 47.679688 24.40625 45.347656 23.6875 C 44.378906 23.390625 42.714844 23.4375 41.597656 23.761719 Z M 41.574219 23.8125 " fill-opacity="1" fill-rule="nonzero"/></svg>