<svg xmlns="http://www.w3.org/2000/svg" xmlns:xlink="http://www.w3.org/1999/xlink" width="91" zoomAndPan="magnify" viewBox="0 0 68.25 38.249999" height="51" preserveAspectRatio="xMidYMid meet" version="1.0"><path fill="#ffffff" d="M 16.789062 0.941406 C 14.710938 1.289062 12.3125 2.105469 10.628906 3.066406 C 9.195312 3.882812 8.257812 4.601562 6.921875 5.9375 C 4.890625 7.941406 3.507812 10.265625 2.542969 13.234375 C 1.800781 15.484375 1.703125 16.226562 1.703125 19.070312 C 1.703125 21.765625 1.824219 22.582031 2.519531 24.734375 C 4.472656 30.84375 9.46875 35.121094 15.875 36.109375 C 20.175781 36.777344 24.605469 36.160156 28.214844 34.355469 C 31.058594 32.945312 33.210938 31.039062 34.941406 28.46875 C 35.90625 27.035156 37.835938 22.929688 42.90625 11.527344 C 43.425781 10.316406 43.917969 9.351562 43.96875 9.425781 C 44.019531 9.472656 44.4375 10.464844 44.910156 11.625 C 47.507812 17.957031 48.988281 21.59375 50.820312 26.144531 C 51.933594 28.914062 53.292969 32.328125 53.863281 33.734375 L 54.875 36.257812 L 60.390625 36.257812 C 65.585938 36.308594 65.90625 36.308594 65.859375 36.109375 C 65.832031 35.988281 64.375 32.351562 62.640625 28 C 58.089844 16.597656 54.949219 8.65625 53.441406 4.824219 C 52.722656 2.96875 52.058594 1.335938 52.007812 1.164062 L 51.882812 0.890625 L 48.71875 0.890625 C 48.71875 0.890625 45.550781 0.941406 45.550781 0.941406 L 43.597656 5.34375 C 42.511719 7.765625 40.40625 12.441406 38.949219 15.757812 C 34.324219 26.144531 33.804688 27.132812 32.097656 29.113281 C 30.710938 30.71875 28.265625 32.253906 26.160156 32.820312 C 24.800781 33.191406 22.007812 33.191406 20.648438 32.820312 C 15.503906 31.410156 12.460938 25.945312 12.460938 18.03125 C 12.460938 13.753906 13.078125 10.539062 14.414062 7.890625 C 15.699219 5.367188 17.457031 3.835938 19.90625 3.066406 C 20.992188 2.722656 23.589844 2.769531 24.703125 3.117188 C 25.964844 3.511719 25.988281 3.5625 25.050781 3.785156 C 23.21875 4.253906 21.757812 5.394531 20.945312 7 C 19.261719 10.363281 20.621094 14.644531 23.886719 16.226562 C 26.65625 17.5625 29.824219 16.992188 31.875 14.765625 C 34.621094 11.796875 34.027344 7 30.589844 4.207031 C 28.660156 2.621094 26.804688 1.78125 23.863281 1.089844 C 22.453125 0.769531 18.371094 0.644531 16.8125 0.917969 Z M 16.789062 0.941406 " fill-opacity="1" fill-rule="nonzero"/><path fill="#ffffff" d="M 41.371094 23.570312 C 39.8125 24.042969 38.777344 24.808594 37.886719 26.144531 C 37.070312 27.355469 36.746094 28.445312 36.746094 29.902344 C 36.746094 31.808594 37.441406 33.339844 38.875 34.652344 C 42.4375 37.941406 48.371094 36.359375 49.804688 31.707031 C 50.101562 30.742188 50.128906 29.011719 49.855469 28.074219 C 49.210938 25.847656 47.457031 24.164062 45.132812 23.449219 C 44.167969 23.152344 42.511719 23.199219 41.398438 23.523438 Z M 41.371094 23.570312 " fill-opacity="1" fill-rule="nonzero"/></svg>